<?xml version="1.0" encoding="UTF-8" standalone="no"?>
<!-- Created with Inkscape (http://www.inkscape.org/) -->

<svg
   width="82.299995"
   height="36"
   viewBox="0 0 82.299996 36"
   version="1.1"
   id="svg1"
   xml:space="preserve"
   sodipodi:docname="logo.svg"
   inkscape:version="1.3.2 (091e20e, 2023-11-25, custom)"
   xmlns:inkscape="http://www.inkscape.org/namespaces/inkscape"
   xmlns:sodipodi="http://sodipodi.sourceforge.net/DTD/sodipodi-0.dtd"
   xmlns="http://www.w3.org/2000/svg"
   xmlns:svg="http://www.w3.org/2000/svg"><sodipodi:namedview
     id="namedview1"
     pagecolor="#ffffff"
     bordercolor="#000000"
     borderopacity="0.25"
     inkscape:showpageshadow="2"
     inkscape:pageopacity="0.0"
     inkscape:pagecheckerboard="0"
     inkscape:deskcolor="#d1d1d1"
     inkscape:zoom="13.973269"
     inkscape:cx="41.149998"
     inkscape:cy="17.998651"
     inkscape:window-width="1920"
     inkscape:window-height="1017"
     inkscape:window-x="-8"
     inkscape:window-y="-8"
     inkscape:window-maximized="1"
     inkscape:current-layer="svg1" /><defs
     id="defs1" /><g
     id="layer1"><path
       d="M 6.3,36 Q 3.69,36 1.845,34.155 0,32.31 0,29.7 V 6.3 Q 0,3.69 1.845,1.845 3.69,0 6.3,0 H 28.8 V 27 Q 27.675,27 26.8875,27.7875 26.1,28.575 26.1,29.7 q 0,1.125 0.7875,1.9125 Q 27.675,32.4 28.8,32.4 V 36 Z M 3.6,23.985 Q 4.23,23.67 4.905,23.535 5.58,23.4 6.3,23.4 H 7.2 V 3.6 H 6.3 Q 5.175,3.6 4.3875,4.3875 3.6,5.175 3.6,6.3 Z M 10.8,23.4 H 25.2 V 3.6 H 10.8 Z M 3.6,23.985 V 3.6 Z M 6.3,32.4 H 23.085 Q 22.815,31.77 22.6575,31.1175 22.5,30.465 22.5,29.7 22.5,28.98 22.635,28.305 22.77,27.63 23.085,27 H 6.3 Q 5.13,27 4.365,27.7875 3.6,28.575 3.6,29.7 3.6,30.87 4.365,31.635 5.13,32.4 6.3,32.4 Z"
       id="path1"
       style="fill:#f25252;fill-opacity:1;stroke-width:0.045" /><path
       id="text10"
       style="font-size:12px;font-family:Gugi;-inkscape-font-specification:'Gugi, Normal';fill:#333333;fill-opacity:1;stroke-width:1.69648"
       d="m 79.613019,17.999999 c -0.800671,0 -1.199364,0.326035 -1.199364,0.977531 v 8.247755 c 0,0.651496 0.398693,0.974234 1.199364,0.974234 0.814248,0 1.222559,-0.322738 1.222559,-0.974234 V 18.97753 c 0,-0.651496 -0.408311,-0.977531 -1.222559,-0.977531 z m -45.291124,0.245204 c -0.800672,0 -1.199364,0.326035 -1.199364,0.977531 v 5.457643 c 0,0.312175 0.08533,0.597035 0.261729,0.854918 0.189991,0.244315 0.531923,0.364521 1.020467,0.364521 h 7.040502 c 0.515687,0 0.775284,-0.338658 0.775284,-1.0173 0.01361,-0.69222 -0.246021,-1.037189 -0.775284,-1.037189 h -5.718554 c -0.09505,0 -0.148769,-0.02228 -0.162334,-0.063 -0.01361,-0.04072 -0.01991,-0.0882 -0.01991,-0.14248 V 19.2227 c 0,-0.651496 -0.408312,-0.977531 -1.222559,-0.977531 z m 9.667852,0 c -0.800671,0 -1.199365,0.326035 -1.199365,0.977531 v 1.159791 h -6.066428 c -0.515686,1.1e-5 -0.771966,0.348287 -0.771966,1.040508 0.01361,0.678642 0.269857,1.017299 0.771966,1.017299 h 6.066428 v 2.462063 c 0,0.665075 0.398694,0.997421 1.199365,0.997421 0.814248,-0.01361 1.222559,-0.345925 1.222559,-0.997421 v -5.679661 c 0,-0.651496 -0.408311,-0.977531 -1.222559,-0.977531 z m 5.72185,0.205447 c -0.515675,0 -0.775285,0.344968 -0.775285,1.037177 0.01361,0.678643 0.273175,1.017311 0.775285,1.017311 h 2.869209 c 0.09504,0 0.148769,0.0189 0.162345,0.05963 0.01361,0.04073 0.02318,0.0882 0.02318,0.14248 v 1.670112 c 0,0.719355 -0.104608,1.710094 -0.308123,2.972361 -0.189994,1.24871 -0.487454,2.416737 -0.894571,3.502559 -0.298562,0.814373 -0.04859,1.276543 0.75209,1.385128 0.800682,0.108562 1.310238,-0.109912 1.527375,-0.652801 0.515686,-1.31657 0.870229,-2.699741 1.060212,-4.152042 0.189994,-1.465868 0.284941,-2.478859 0.284941,-3.035338 v -2.727173 c 0,-0.312175 -0.09494,-0.590723 -0.284941,-0.835027 -0.176417,-0.257883 -0.508712,-0.3844 -0.997256,-0.3844 z m 7.123322,0 c -0.515686,0 -0.771954,0.344968 -0.771954,1.037177 0.01361,0.678643 0.269844,1.017311 0.771954,1.017311 h 3.015009 c 0.09505,0 0.148769,0.0189 0.162335,0.05963 0.01361,0.04073 0.01991,0.0882 0.01991,0.14248 v 8.35049 c 0,0.651496 0.398694,0.974212 1.199365,0.974212 0.814247,0 1.222559,-0.322716 1.222559,-0.974212 v -9.387684 c 0,-0.312175 -0.09494,-0.590723 -0.284919,-0.835027 -0.176428,-0.257883 -0.508734,-0.3844 -0.99729,-0.3844 z m 9.303409,0 c -0.515686,0 -0.771977,0.344968 -0.771977,1.037177 0.01361,0.678643 0.269856,1.017311 0.771977,1.017311 h 6.126067 c 0.09504,0 0.152076,0.0189 0.165652,0.05963 0.01361,0.04073 0.01991,0.0882 0.01991,0.14248 v 2.445503 c 0,0.05434 -0.0067,0.101813 -0.01991,0.142481 -0.01361,0.04072 -0.07064,0.05963 -0.165652,0.05963 h -5.615836 c -0.488555,0 -0.82716,0.129802 -1.017143,0.387684 -0.176429,0.244316 -0.265065,0.522887 -0.265065,0.835062 v 4.784953 c 0,0.312174 0.08864,0.597046 0.265065,0.85494 0.189983,0.244303 0.528588,0.364498 1.017143,0.364498 h 2.90896 c 0.502122,0 0.755421,-0.338669 0.755421,-1.017311 0.01361,-0.692209 -0.239734,-1.037166 -0.755421,-1.037166 h -1.587 c -0.09505,0 -0.148781,-0.0068 -0.162358,-0.01991 -0.01361,-0.01361 -0.01991,-0.04849 -0.01991,-0.102712 v -2.790136 c 0,-0.05434 0.0067,-0.101812 0.01991,-0.142491 0.01361,-0.04072 0.06738,-0.05962 0.162358,-0.05962 h 5.619153 c 0.488544,0 0.820839,-0.123513 0.997257,-0.367829 0.189993,-0.257882 0.284939,-0.542742 0.284939,-0.854917 v -4.519882 c 0,-0.312174 -0.09493,-0.590723 -0.284939,-0.835027 -0.176418,-0.257883 -0.508713,-0.3844 -0.997257,-0.3844 z m 10.545844,2.604554 c -0.434261,0 -0.807725,0.155058 -1.119863,0.467233 -0.29855,0.298597 -0.447274,0.665817 -0.447274,1.100144 0,0.434338 0.148724,0.807837 0.447274,1.120012 0.312138,0.298607 0.685602,0.447365 1.119863,0.447365 0.434271,0 0.801402,-0.148758 1.099964,-0.447365 0.312127,-0.312175 0.467162,-0.685674 0.467162,-1.120012 0,-0.434327 -0.155035,-0.801547 -0.467162,-1.100144 -0.298562,-0.312175 -0.665693,-0.467233 -1.099964,-0.467233 z m -45.108896,5.762495 c -0.515688,0 -0.77528,0.344969 -0.77528,1.037178 0.01357,0.678642 0.273163,1.017311 0.77528,1.017311 h 7.448007 c 0.09504,0 0.148792,0.02228 0.162357,0.063 0.01361,0.04073 0.02318,0.0882 0.02318,0.142481 v 0.69257 h -4.134848 c -0.515686,0 -0.771966,0.344979 -0.771966,1.037189 0.01361,0.678642 0.269857,1.017299 0.771966,1.017299 h 8.816361 c 0.09505,0 0.14878,0.02228 0.162356,0.063 0.01361,0.04073 0.01991,0.0882 0.01991,0.14248 v 2.992251 C 44.072599,35.673954 44.4746,36 45.275282,36 c 0.814236,0 1.21924,-0.326046 1.21924,-0.977542 v -4.032747 c 0,-0.312175 -0.09493,-0.590735 -0.284928,-0.83505 -0.176429,-0.257883 -0.508724,-0.384389 -0.997268,-0.384389 h -3.581549 v -1.733066 c 0,-0.312175 -0.09493,-0.590724 -0.284928,-0.835028 -0.176429,-0.257882 -0.508724,-0.384399 -0.997268,-0.384399 z m 40.119249,1.729736 c -0.488544,0 -0.82716,0.148758 -1.017143,0.447366 -0.176428,0.285029 -0.265053,0.582511 -0.265053,0.894686 v 4.867797 c 0,0.312175 0.08864,0.590747 0.265053,0.835051 0.189983,0.257893 0.528599,0.384388 1.017143,0.384388 h 9.323274 c 0.488544,0 0.820839,-0.126495 0.997268,-0.384388 0.189982,-0.244304 0.284928,-0.522876 0.284928,-0.835051 v -4.987091 c 0,-0.312175 -0.09494,-0.590735 -0.284928,-0.835051 -0.176429,-0.257882 -0.508724,-0.387707 -0.997268,-0.387707 z m 1.325267,2.054489 h 6.676059 c 0.09505,0 0.14877,0.02228 0.162346,0.063 0.01361,0.04072 0.01991,0.0882 0.01991,0.142491 v 2.912714 c 0,0.05434 -0.0067,0.101812 -0.01991,0.142503 -0.01361,0.04073 -0.06738,0.05963 -0.162346,0.05963 h -6.676059 c -0.09504,0 -0.148769,-0.0189 -0.162335,-0.05963 -0.01361,-0.04073 -0.01991,-0.0882 -0.01991,-0.142503 v -2.912714 c 0,-0.05434 0.0067,-0.101812 0.01991,-0.142491 0.01361,-0.04072 0.06738,-0.063 0.162335,-0.063 z m -24.020534,0.692569 c -0.515686,0 -0.775274,0.348288 -0.775274,1.040497 0.01361,0.678642 0.273164,1.017299 0.775274,1.017299 h 13.882225 c 0.515686,0 0.775284,-0.338657 0.775284,-1.017299 0.01361,-0.692209 -0.246021,-1.040497 -0.775284,-1.040497 z" /></g></svg>
