<svg xmlns="http://www.w3.org/2000/svg" xmlns:xlink="http://www.w3.org/1999/xlink" viewBox="0 0 184 46"><defs><style>.cls-1,.cls-3{fill:none;}.cls-2{fill:#fff;}.cls-3{stroke:#747775;}.cls-4{clip-path:url(#clip-path);}.cls-5{fill:#4285f4;}.cls-6{fill:#34a853;}.cls-7{fill:#fbbc04;}.cls-8{fill:#e94235;}.cls-9{fill:#1f1f1f;}</style><clipPath id="clip-path"><rect class="cls-1" x="13.11" y="12.48" width="21.03" height="21.03"/></clipPath></defs><g id="Layer_2" data-name="Layer 2"><g id="Layer_1-2" data-name="Layer 1"><path class="cls-2" d="M4.18.5H179.82a3.87,3.87,0,0,1,3.68,4V41.46a3.87,3.87,0,0,1-3.68,4H4.18a3.87,3.87,0,0,1-3.68-4V4.54A3.87,3.87,0,0,1,4.18.5Z"/><path class="cls-3" d="M4.18.5H179.82a3.87,3.87,0,0,1,3.68,4V41.46a3.87,3.87,0,0,1-3.68,4H4.18a3.87,3.87,0,0,1-3.68-4V4.54A3.87,3.87,0,0,1,4.18.5Z"/><g class="cls-4"><path class="cls-5" d="M33.73,23.24a12.46,12.46,0,0,0-.19-2.15H23.63v4.07h5.66a4.82,4.82,0,0,1-2.1,3.17V31h3.4A10.26,10.26,0,0,0,33.73,23.24Z"/><path class="cls-6" d="M23.63,33.52a10,10,0,0,0,7-2.55l-3.4-2.64A6.35,6.35,0,0,1,17.75,25H14.23v2.72A10.52,10.52,0,0,0,23.63,33.52Z"/><path class="cls-7" d="M17.75,25a6.23,6.23,0,0,1,0-4V18.28H14.23a10.51,10.51,0,0,0,0,9.44Z"/><path class="cls-8" d="M23.63,16.67a5.68,5.68,0,0,1,4,1.57l3-3a10.09,10.09,0,0,0-7-2.74,10.52,10.52,0,0,0-9.4,5.8L17.75,21A6.26,6.26,0,0,1,23.63,16.67Z"/></g><path class="cls-9" d="M51.24,25.56a1.7,1.7,0,0,0-.1-.57,1.22,1.22,0,0,0-.34-.46,2.66,2.66,0,0,0-.69-.41A10.31,10.31,0,0,0,49,23.71a11.06,11.06,0,0,1-1.38-.51,5.34,5.34,0,0,1-1.1-.66,2.7,2.7,0,0,1-.72-.87,2.46,2.46,0,0,1-.26-1.14,2.6,2.6,0,0,1,.26-1.16,2.79,2.79,0,0,1,.77-.91,3.81,3.81,0,0,1,1.19-.6,5.15,5.15,0,0,1,1.51-.21,4.32,4.32,0,0,1,2,.43,3.2,3.2,0,0,1,1.3,1.16,3,3,0,0,1,.46,1.6H51.24a1.78,1.78,0,0,0-.23-.91,1.51,1.51,0,0,0-.66-.64,2.41,2.41,0,0,0-1.11-.23,2.59,2.59,0,0,0-1.07.2,1.43,1.43,0,0,0-.63.52,1.37,1.37,0,0,0-.21.75,1.09,1.09,0,0,0,.14.54,1.34,1.34,0,0,0,.42.44,3.23,3.23,0,0,0,.7.39,8.9,8.9,0,0,0,1,.34,9.7,9.7,0,0,1,1.52.58,4.38,4.38,0,0,1,1.08.7,2.56,2.56,0,0,1,.64.9,2.71,2.71,0,0,1,.22,1.13,2.57,2.57,0,0,1-.27,1.19,2.51,2.51,0,0,1-.76.9,3.81,3.81,0,0,1-1.18.57,5.5,5.5,0,0,1-1.52.19,5.35,5.35,0,0,1-1.49-.2,4.31,4.31,0,0,1-1.32-.61,3,3,0,0,1-.95-1,2.83,2.83,0,0,1-.35-1.45H47a2.08,2.08,0,0,0,.17.87,1.65,1.65,0,0,0,.5.58,2.34,2.34,0,0,0,.73.34,3.79,3.79,0,0,0,.91.1,2.67,2.67,0,0,0,1-.18,1.34,1.34,0,0,0,.65-.5A1.27,1.27,0,0,0,51.24,25.56Zm5.09-5.08v7.78H54.59V20.48Zm-1.86-2a.91.91,0,0,1,.26-.66,1.15,1.15,0,0,1,1.46,0,.88.88,0,0,1,.27.66.84.84,0,0,1-.27.64,1.15,1.15,0,0,1-1.46,0A.87.87,0,0,1,54.47,18.44Zm8.74,2h1.57V28a3.47,3.47,0,0,1-.44,1.79,2.93,2.93,0,0,1-1.25,1.11,4.15,4.15,0,0,1-1.84.39,4.23,4.23,0,0,1-1-.13,4.27,4.27,0,0,1-1-.42,2.58,2.58,0,0,1-.84-.74l.81-1a2.83,2.83,0,0,0,.92.73,2.59,2.59,0,0,0,1.06.23,2.13,2.13,0,0,0,1-.23,1.44,1.44,0,0,0,.65-.64,2.15,2.15,0,0,0,.23-1V22.24Zm-5.29,4V24.3a5.8,5.8,0,0,1,.22-1.61,3.75,3.75,0,0,1,.62-1.25,2.66,2.66,0,0,1,1-.82,2.86,2.86,0,0,1,1.3-.28,2.78,2.78,0,0,1,1.28.27,2.41,2.41,0,0,1,.9.78,3.86,3.86,0,0,1,.56,1.21,8.5,8.5,0,0,1,.31,1.55v.49a8.33,8.33,0,0,1-.31,1.52,4.27,4.27,0,0,1-.59,1.19,2.52,2.52,0,0,1-.91.78A2.73,2.73,0,0,1,61,28.4a2.83,2.83,0,0,1-1.28-.29,2.88,2.88,0,0,1-1-.83A3.75,3.75,0,0,1,58.14,26,5.62,5.62,0,0,1,57.92,24.46Zm1.74-.16v.16a4.49,4.49,0,0,0,.1,1,2.8,2.8,0,0,0,.32.81,1.83,1.83,0,0,0,.56.55,1.62,1.62,0,0,0,.81.19,1.79,1.79,0,0,0,1-.26,1.6,1.6,0,0,0,.61-.7,3.59,3.59,0,0,0,.3-1v-1.3a3.26,3.26,0,0,0-.18-.79,2.19,2.19,0,0,0-.35-.64,1.48,1.48,0,0,0-.56-.43,1.84,1.84,0,0,0-.8-.16,1.62,1.62,0,0,0-.81.2,1.69,1.69,0,0,0-.57.56,2.66,2.66,0,0,0-.33.82A4.49,4.49,0,0,0,59.66,24.3Zm8.64-2.16v6.12H66.57V20.48H68.2ZM68,24.08h-.56a4.83,4.83,0,0,1,.23-1.51,3.65,3.65,0,0,1,.63-1.19,2.79,2.79,0,0,1,1-.76,2.91,2.91,0,0,1,1.26-.27,3.22,3.22,0,0,1,1,.15,1.84,1.84,0,0,1,.78.5,2.18,2.18,0,0,1,.5.9A4.3,4.3,0,0,1,73,23.23v5H71.27v-5a2,2,0,0,0-.17-.89.94.94,0,0,0-.47-.47,1.82,1.82,0,0,0-.75-.14,1.63,1.63,0,0,0-.8.19,1.69,1.69,0,0,0-.59.51,2.19,2.19,0,0,0-.37.75A2.92,2.92,0,0,0,68,24.08Zm12.31-3.6v7.78H78.56V20.48Zm-1.86-2a.91.91,0,0,1,.26-.66,1.15,1.15,0,0,1,1.46,0,.88.88,0,0,1,.27.66.84.84,0,0,1-.27.64,1.15,1.15,0,0,1-1.46,0A.87.87,0,0,1,78.44,18.44Zm5.47,3.7v6.12H82.18V20.48h1.63Zm-.31,1.94H83a5.49,5.49,0,0,1,.23-1.51,3.87,3.87,0,0,1,.64-1.19,2.85,2.85,0,0,1,1-.76,2.92,2.92,0,0,1,1.27-.27,3.2,3.2,0,0,1,1,.15A1.87,1.87,0,0,1,88,21a2.18,2.18,0,0,1,.5.9,4.33,4.33,0,0,1,.17,1.34v5H86.88v-5a2,2,0,0,0-.16-.89,1,1,0,0,0-.47-.47,1.82,1.82,0,0,0-.75-.14,1.6,1.6,0,0,0-.8.19,1.64,1.64,0,0,0-.6.51,2.39,2.39,0,0,0-.37.75A3.26,3.26,0,0,0,83.6,24.08Zm12.57,2.45L98,20.48h1.11l-.31,1.81-1.81,6H96Zm-1.06-6.05,1.41,6.08.11,1.7H95.52l-2.1-7.78Zm5.65,6,1.36-6h1.69l-2.1,7.78H100.6Zm-1.5-6,1.78,6,.22,1.8h-1l-1.83-6-.31-1.8Zm7.58,0v7.78H105.1V20.48Zm-1.85-2a.91.91,0,0,1,.25-.66,1,1,0,0,1,.74-.26,1,1,0,0,1,.72.26.88.88,0,0,1,.27.66.84.84,0,0,1-.27.64.94.94,0,0,1-.72.26,1,1,0,0,1-.74-.26A.86.86,0,0,1,105,18.44Zm7.31,2v1.26h-4.38V20.48Zm-3.11-1.91h1.73v7.54a1.17,1.17,0,0,0,.1.55.5.5,0,0,0,.29.25,1.2,1.2,0,0,0,.44.07l.35,0,.26-.05v1.33a4.24,4.24,0,0,1-.5.11,3.24,3.24,0,0,1-.65,0,2.54,2.54,0,0,1-1.06-.21,1.6,1.6,0,0,1-.72-.69,2.75,2.75,0,0,1-.25-1.28Zm6.16-1.35v11h-1.72v-11Zm-.3,6.86h-.56a5.34,5.34,0,0,1,.22-1.48,4,4,0,0,1,.62-1.19,2.75,2.75,0,0,1,2.21-1.06,3.28,3.28,0,0,1,1,.15,2.07,2.07,0,0,1,.81.51,2.35,2.35,0,0,1,.51.91,4.41,4.41,0,0,1,.18,1.35v5h-1.74v-5a1.86,1.86,0,0,0-.17-.89,1,1,0,0,0-.46-.48,1.75,1.75,0,0,0-.76-.15,1.66,1.66,0,0,0-.82.19,1.53,1.53,0,0,0-.59.51,2.18,2.18,0,0,0-.36.75A3.26,3.26,0,0,0,115.05,24.08Zm18.65-1.17v4a3.49,3.49,0,0,1-.7.64,4.34,4.34,0,0,1-1.24.6,6.28,6.28,0,0,1-1.93.25,4.82,4.82,0,0,1-1.81-.33,3.89,3.89,0,0,1-1.42-1,4.62,4.62,0,0,1-.91-1.58,6.62,6.62,0,0,1-.32-2.13v-.72a7.24,7.24,0,0,1,.29-2.12,4.39,4.39,0,0,1,.87-1.58,3.67,3.67,0,0,1,1.35-1,5.29,5.29,0,0,1,3.93.1,3.07,3.07,0,0,1,1.31,1.18A4.23,4.23,0,0,1,133.7,21h-1.77a2.55,2.55,0,0,0-.34-1,1.64,1.64,0,0,0-.7-.68,2.38,2.38,0,0,0-1.18-.25,2.54,2.54,0,0,0-1.1.23,2.2,2.2,0,0,0-.79.7,3.47,3.47,0,0,0-.47,1.12,6.86,6.86,0,0,0-.16,1.51v.74a6,6,0,0,0,.18,1.54,3.44,3.44,0,0,0,.54,1.12,2.29,2.29,0,0,0,.85.7,2.64,2.64,0,0,0,1.14.23,4,4,0,0,0,1-.1,2.23,2.23,0,0,0,.63-.25,1.67,1.67,0,0,0,.36-.29V24.25h-2.17V22.91Zm1.5,1.55v-.17a4.9,4.9,0,0,1,.24-1.56,3.71,3.71,0,0,1,.71-1.26,3.1,3.1,0,0,1,1.13-.83,3.73,3.73,0,0,1,1.53-.3,3.68,3.68,0,0,1,1.52.3,3.06,3.06,0,0,1,1.14.83,3.91,3.91,0,0,1,.72,1.26,4.9,4.9,0,0,1,.24,1.56v.17a4.9,4.9,0,0,1-.24,1.56,4,4,0,0,1-.72,1.25,3.25,3.25,0,0,1-1.13.84,3.85,3.85,0,0,1-1.52.29,3.9,3.9,0,0,1-1.53-.29,3.19,3.19,0,0,1-1.14-.84,3.76,3.76,0,0,1-.71-1.25A4.9,4.9,0,0,1,135.2,24.46Zm1.73-.17v.17a4.48,4.48,0,0,0,.11,1,2.61,2.61,0,0,0,.33.82,1.72,1.72,0,0,0,.59.55,1.79,1.79,0,0,0,.86.2,1.67,1.67,0,0,0,.83-.2,1.64,1.64,0,0,0,.59-.55,2.41,2.41,0,0,0,.34-.82,4,4,0,0,0,.12-1v-.17a3.87,3.87,0,0,0-.12-1,2.41,2.41,0,0,0-.34-.82,1.78,1.78,0,0,0-.59-.57,1.89,1.89,0,0,0-1.69,0,1.78,1.78,0,0,0-.59.57,2.61,2.61,0,0,0-.33.82A4.39,4.39,0,0,0,136.93,24.29Zm6.62.17v-.17a4.64,4.64,0,0,1,.25-1.56,3.69,3.69,0,0,1,.7-1.26,3.06,3.06,0,0,1,1.14-.83,4,4,0,0,1,3,0,3.09,3.09,0,0,1,1.15.83,3.71,3.71,0,0,1,.71,1.26,4.9,4.9,0,0,1,.24,1.56v.17a4.9,4.9,0,0,1-.24,1.56,3.76,3.76,0,0,1-.71,1.25,3.19,3.19,0,0,1-1.14.84,3.82,3.82,0,0,1-1.52.29,3.9,3.9,0,0,1-1.53-.29,3.25,3.25,0,0,1-1.13-.84A3.6,3.6,0,0,1,143.8,26,4.64,4.64,0,0,1,143.55,24.46Zm1.73-.17v.17a4.48,4.48,0,0,0,.11,1,2.62,2.62,0,0,0,.34.82,1.64,1.64,0,0,0,.59.55,1.75,1.75,0,0,0,.85.2,1.63,1.63,0,0,0,1.43-.75,2.89,2.89,0,0,0,.34-.82,4.48,4.48,0,0,0,.11-1v-.17a4.39,4.39,0,0,0-.11-1,2.64,2.64,0,0,0-.35-.82,1.59,1.59,0,0,0-1.43-.77,1.56,1.56,0,0,0-1.43.77,2.62,2.62,0,0,0-.34.82A4.39,4.39,0,0,0,145.28,24.29Zm11.94-3.81h1.57V28a3.47,3.47,0,0,1-.44,1.79,2.93,2.93,0,0,1-1.25,1.11,4.13,4.13,0,0,1-1.85.39,4.21,4.21,0,0,1-1-.13,4.27,4.27,0,0,1-1-.42,2.58,2.58,0,0,1-.84-.74l.82-1a2.63,2.63,0,0,0,.92.73,2.51,2.51,0,0,0,1,.23,2.13,2.13,0,0,0,1-.23,1.44,1.44,0,0,0,.65-.64,2.15,2.15,0,0,0,.23-1V22.24Zm-5.29,4V24.3a5.8,5.8,0,0,1,.22-1.61,3.75,3.75,0,0,1,.62-1.25,2.66,2.66,0,0,1,1-.82,2.86,2.86,0,0,1,1.3-.28,2.78,2.78,0,0,1,1.28.27,2.41,2.41,0,0,1,.9.78,3.86,3.86,0,0,1,.56,1.21,8.5,8.5,0,0,1,.31,1.55v.49a8.33,8.33,0,0,1-.31,1.52,4.27,4.27,0,0,1-.59,1.19,2.52,2.52,0,0,1-.91.78,2.73,2.73,0,0,1-1.26.27,2.83,2.83,0,0,1-1.28-.29,2.88,2.88,0,0,1-1-.83,3.75,3.75,0,0,1-.62-1.25A5.62,5.62,0,0,1,151.93,24.46Zm1.74-.16v.16a4.49,4.49,0,0,0,.1,1,2.8,2.8,0,0,0,.32.81,1.83,1.83,0,0,0,.56.55,1.62,1.62,0,0,0,.81.19,1.79,1.79,0,0,0,1-.26,1.6,1.6,0,0,0,.61-.7,3.59,3.59,0,0,0,.3-1v-1.3a3.26,3.26,0,0,0-.18-.79,2.19,2.19,0,0,0-.35-.64,1.48,1.48,0,0,0-.56-.43,1.84,1.84,0,0,0-.8-.16,1.62,1.62,0,0,0-.81.2,1.69,1.69,0,0,0-.57.56,2.66,2.66,0,0,0-.33.82A4.49,4.49,0,0,0,153.67,24.3Zm8.77-7.08v11H160.7v-11Zm5.33,11.18a4.13,4.13,0,0,1-1.56-.28,3.47,3.47,0,0,1-1.18-.8,3.51,3.51,0,0,1-.74-1.2,4.22,4.22,0,0,1-.26-1.48v-.29a4.86,4.86,0,0,1,.27-1.66,3.75,3.75,0,0,1,.74-1.26,3.07,3.07,0,0,1,1.12-.81,3.79,3.79,0,0,1,2.86,0,2.65,2.65,0,0,1,1,.79,3.26,3.26,0,0,1,.62,1.2,5.31,5.31,0,0,1,.21,1.54v.74h-6V23.64h4.29v-.13a2.3,2.3,0,0,0-.18-.88,1.4,1.4,0,0,0-1.43-.91,1.59,1.59,0,0,0-.77.18,1.57,1.57,0,0,0-.56.53,3,3,0,0,0-.34.83,4.49,4.49,0,0,0-.12,1.09v.29a3.14,3.14,0,0,0,.14.94,2.44,2.44,0,0,0,.42.76,2.09,2.09,0,0,0,.66.51,2.07,2.07,0,0,0,.88.18,2.4,2.4,0,0,0,1.12-.25,2.73,2.73,0,0,0,.85-.71l.91.88a3.58,3.58,0,0,1-.66.7,3,3,0,0,1-1,.54A3.89,3.89,0,0,1,167.77,28.4Z"/></g></g></svg>