<svg xmlns="http://www.w3.org/2000/svg" viewBox="0 0 183 45"><defs><style>.cls-1{fill:#03c75a;}.cls-2{fill:#fff;}</style></defs><g id="Layer_2" data-name="Layer 2"><g id="Layer_2-2" data-name="Layer 2"><rect class="cls-1" width="183" height="45" rx="3"/><polygon class="cls-2" points="46.46 23.49 41.41 16.27 37.23 16.27 37.23 29.77 41.61 29.77 41.61 22.54 46.66 29.77 50.84 29.77 50.84 16.27 46.46 16.27 46.46 23.49"/><path class="cls-2" d="M63,25.57V16.31h1.39v8h.52a14.46,14.46,0,0,0,2.37-.18c.72-.12,1.31-.23,1.77-.34V25c-.25.08-.55.15-.88.22s-.7.13-1.08.18-.78.1-1.17.13-.79.05-1.17.05Zm7-10.18H71.3V29.25H70V21H66.84V19.82H70Zm4.55,14.22H73.16V15.23h1.35Z"/><path class="cls-2" d="M83.71,21.2a8,8,0,0,1-.28,2.23A4.93,4.93,0,0,1,82.65,25a3.32,3.32,0,0,1-1.18,1,3.26,3.26,0,0,1-4.07-1,4.76,4.76,0,0,1-.8-1.61,7.93,7.93,0,0,1-.29-2.23A7.83,7.83,0,0,1,76.6,19a4.76,4.76,0,0,1,.8-1.61,3.51,3.51,0,0,1,1.17-1,3.35,3.35,0,0,1,2.9,0,3.54,3.54,0,0,1,1.18,1A4.93,4.93,0,0,1,83.43,19,7.85,7.85,0,0,1,83.71,21.2Zm-1.39,0a7.94,7.94,0,0,0-.15-1.61,4.86,4.86,0,0,0-.45-1.24,2.27,2.27,0,0,0-.73-.8,1.86,1.86,0,0,0-2,0,2.18,2.18,0,0,0-.73.8,4.86,4.86,0,0,0-.45,1.24,8.13,8.13,0,0,0,0,3.21A4.72,4.72,0,0,0,78.3,24a2.22,2.22,0,0,0,.73.81,1.8,1.8,0,0,0,2,0,2.31,2.31,0,0,0,.73-.81,4.72,4.72,0,0,0,.45-1.24A7.91,7.91,0,0,0,82.32,21.2Zm4.1-6h1.35V29.61H86.42Z"/><path class="cls-2" d="M96.55,20.29h3.37V15.23h1.35V29.61H99.92V21.47H96.55v4.22H90.12l0-9.37h1.38v3.56h3.69V16.32h1.34ZM95.22,21H91.51v3.51h3.71Z"/><path class="cls-2" d="M108.7,23.87V19.52h7.64V17.44h-7.66V16.26h9v4.38h-7.64v2.08h8.11v1.15H113.9v2.56h6v1.15H106.49V26.43h6V23.87Z"/><path class="cls-2" d="M129.88,17.74H122V16.53h9.23c0,.77-.06,1.59-.12,2.43s-.13,1.7-.22,2.55-.19,1.68-.3,2.49-.23,1.57-.34,2.26h3.07v1.15H120V26.26h8.92c.26-1.29.48-2.68.66-4.15A43.61,43.61,0,0,0,129.88,17.74Z"/><path class="cls-2" d="M134,19.52a3.78,3.78,0,0,1,.29-1.47,3.49,3.49,0,0,1,.78-1.16,3.76,3.76,0,0,1,1.18-.77,3.94,3.94,0,0,1,1.48-.27,4.07,4.07,0,0,1,1.49.27,3.74,3.74,0,0,1,1.2.77,3.49,3.49,0,0,1,.78,1.16,3.77,3.77,0,0,1,.28,1.47,3.58,3.58,0,0,1-.28,1.43,3.5,3.5,0,0,1-.78,1.14,3.72,3.72,0,0,1-1.2.76,4.07,4.07,0,0,1-1.49.28,3.94,3.94,0,0,1-1.48-.28,3.74,3.74,0,0,1-1.18-.76,3.5,3.5,0,0,1-.78-1.14A3.58,3.58,0,0,1,134,19.52Zm1.45,0a2.78,2.78,0,0,0,.17,1,2.27,2.27,0,0,0,.47.76,2.18,2.18,0,0,0,.73.49,2.44,2.44,0,0,0,.95.18,2.39,2.39,0,0,0,.94-.18,2.22,2.22,0,0,0,.74-.49,2.46,2.46,0,0,0,.48-.76,2.78,2.78,0,0,0,.17-1,2.87,2.87,0,0,0-.17-1,2.49,2.49,0,0,0-.48-.79,2.13,2.13,0,0,0-.74-.51,2.39,2.39,0,0,0-.94-.18,2.44,2.44,0,0,0-.95.18,2.09,2.09,0,0,0-.73.51,2.3,2.3,0,0,0-.47.79A2.87,2.87,0,0,0,135.44,19.51Zm10.33,9.82h-9.3V24.87h1.38v3.28h7.92Zm-.33-3.7h-1.33V15.23h1.33Z"/></g></g></svg>